# Blender v2.90.1 OBJ File: 'stud_sim.blend'
# www.blender.org
mtllib box.mtl
o Cube
v -10.000000 -10.000000 10.000000
v -10.000000 10.000000 10.000000
v -10.000000 -10.000000 -10.000000
v -10.000000 10.000000 -10.000000
v 10.000000 -10.000000 10.000000
v 10.000000 10.000000 10.000000
v 10.000000 -10.000000 -10.000000
v 10.000000 10.000000 -10.000000
v -11.000000 -11.000000 11.000000
v -11.000000 10.000000 11.000000
v -11.000000 -11.000000 -11.000000
v -11.000000 10.000000 -11.000000
v 11.000000 -11.000000 11.000000
v 11.000000 10.000000 11.000000
v 11.000000 -11.000000 -11.000000
v 11.000000 10.000000 -11.000000
vt 0.375000 0.000000
vt 0.375000 0.250000
vt 0.625000 0.250000
vt 0.625000 0.000000
vt 0.375000 0.500000
vt 0.625000 0.500000
vt 0.375000 0.750000
vt 0.625000 0.750000
vt 0.375000 1.000000
vt 0.625000 1.000000
vt 0.125000 0.500000
vt 0.125000 0.750000
vt 0.375000 0.000000
vt 0.625000 0.000000
vt 0.625000 0.250000
vt 0.375000 0.250000
vt 0.625000 0.500000
vt 0.375000 0.500000
vt 0.625000 0.750000
vt 0.375000 0.750000
vt 0.625000 1.000000
vt 0.375000 1.000000
vt 0.125000 0.500000
vt 0.125000 0.750000
vt 0.636364 0.511364
vt 0.636364 0.738636
vt 0.863636 0.738636
vt 0.875000 0.750000
vt 0.863636 0.511364
vt 0.875000 0.500000
vn 1.0000 0.0000 0.0000
vn 0.0000 0.0000 1.0000
vn -1.0000 0.0000 0.0000
vn 0.0000 0.0000 -1.0000
vn 0.0000 1.0000 0.0000
vn 0.0000 -1.0000 0.0000
usemtl None
s off
f 1/1/1 3/2/1 4/3/1 2/4/1
f 3/2/2 7/5/2 8/6/2 4/3/2
f 7/5/3 5/7/3 6/8/3 8/6/3
f 5/7/4 1/9/4 2/10/4 6/8/4
f 3/11/5 1/12/5 5/7/5 7/5/5
f 9/13/3 10/14/3 12/15/3 11/16/3
f 11/16/4 12/15/4 16/17/4 15/18/4
f 15/18/1 16/17/1 14/19/1 13/20/1
f 13/20/2 14/19/2 10/21/2 9/22/2
f 11/23/6 15/18/6 13/20/6 9/24/6
f 16/17/5 8/25/5 6/26/5 2/27/5 10/28/5 14/19/5
f 10/28/5 2/27/5 4/29/5 8/25/5 16/17/5 12/30/5
